# Blender v2.76 (sub 0) OBJ File: 'arch_door_L_open.blend'
# www.blender.org
o Cube
v 0.500701 -0.500000 -0.430000
v 0.380701 -0.500000 -0.430000
v 0.380701 -0.500000 -1.430000
v 0.500701 -0.500000 -1.430000
v 0.500701 0.500624 -0.430000
v 0.500701 1.438348 -1.430000
v 0.500701 1.438348 -1.178866
v 0.500701 1.373626 -1.178866
v 0.500701 1.373626 -0.993962
v 0.500701 1.313530 -0.993962
v 0.500701 1.313530 -0.931302
v 0.500701 1.254458 -0.931302
v 0.500701 1.254458 -0.805878
v 0.500701 1.194893 -0.805878
v 0.500701 1.194893 -0.743904
v 0.500701 1.135752 -0.743904
v 0.500701 1.135752 -0.682611
v 0.500701 1.020360 -0.682611
v 0.500701 1.020360 -0.619922
v 0.500701 0.939815 -0.619922
v 0.500701 0.939815 -0.554718
v 0.500701 0.748626 -0.554718
v 0.500701 0.748626 -0.493609
v 0.500701 0.500624 -0.493609
v 0.380701 0.500624 -0.430000
v 0.380702 1.438348 -1.430000
v 0.380701 0.500624 -0.493609
v 0.380701 0.748626 -0.493609
v 0.380701 0.748626 -0.554718
v 0.380701 0.939815 -0.554718
v 0.380701 0.939815 -0.619922
v 0.380701 1.020360 -0.619922
v 0.380701 1.020360 -0.682611
v 0.380701 1.135752 -0.682611
v 0.380701 1.135752 -0.743904
v 0.380701 1.194893 -0.743904
v 0.380701 1.194893 -0.805878
v 0.380701 1.254458 -0.805878
v 0.380701 1.254458 -0.931302
v 0.380701 1.313530 -0.931302
v 0.380701 1.313530 -0.993962
v 0.380701 1.373626 -0.993962
v 0.380701 1.373626 -1.178866
v 0.380701 1.438348 -1.178866
vt 0.000000 0.187500
vt 0.000000 0.125000
vt 1.000000 0.125000
vt 1.000000 0.187500
vt 0.000000 0.500312
vt 0.000000 0.000000
vt 1.000000 0.000000
vt 1.000000 0.969174
vt 0.748866 0.969174
vt 0.748866 0.936813
vt 0.562500 0.937500
vt 0.562500 0.906250
vt 0.500357 0.905867
vt 0.500000 0.875000
vt 0.375000 0.874994
vt 0.375000 0.843750
vt 0.312500 0.843578
vt 0.312500 0.812500
vt 0.250000 0.812500
vt 0.250000 0.750000
vt 0.187500 0.750000
vt 0.187500 0.718750
vt 0.125000 0.718750
vt 0.125000 0.625000
vt 0.062500 0.625000
vt 0.062500 0.500000
vt 0.000000 0.500000
vt 0.125000 -0.000000
vt 0.125000 0.500000
vt 1.000000 0.968750
vt 0.312500 0.843750
vt 0.500000 0.906250
vt 0.750000 0.937500
vt 0.750000 0.968750
vt 0.562500 0.000000
vt 0.687500 0.000000
vt 0.687500 0.937500
vt 0.000000 0.437500
vt 0.062500 0.437500
vt 0.750000 0.906250
vt 1.000000 0.906250
vt 0.437500 0.656250
vt 0.437500 0.625000
vt 0.562500 0.625000
vt 0.562500 0.656250
vt 0.875000 0.875000
vt 0.687500 0.875000
vt 0.687500 0.812500
vt 0.875000 0.812500
vt 0.437500 0.781250
vt 0.437500 0.750000
vt 0.562500 0.750000
vt 0.562500 0.781250
vt 0.375000 0.812500
vt 0.500000 0.812500
vt 0.375000 0.781250
vt 0.500000 0.781250
vt 0.312500 0.781250
vt 0.312500 0.750000
vt 0.250000 0.687500
vt 0.375000 0.687500
vt 0.375000 0.750000
vt 0.187500 0.687500
vt 0.187500 0.656250
vt 0.312500 0.656250
vt 0.312500 0.687500
vt 0.125000 0.656250
vt 0.375000 0.656250
vt 0.500000 0.656250
vt 0.500000 0.750000
vt 0.062500 0.562500
vt 0.125000 0.562500
vt 0.250000 0.500000
vt 0.250000 0.625000
vt 0.875000 0.906250
vt 0.750000 0.875000
vt 0.500000 0.843750
vt 0.562500 0.843750
vn 0.000000 -1.000000 0.000000
vn 1.000000 -0.000000 0.000000
vn -0.000000 0.000000 1.000000
vn -1.000000 -0.000000 -0.000000
vn 0.000000 -0.000000 -1.000000
vn 0.000000 1.000000 0.000000
s off
f 1/1/1 2/2/1 3/3/1 4/4/1
f 5/5/2 1/6/2 4/7/2 6/8/2 7/9/2 8/10/2 9/11/2 10/12/2 11/13/2 12/14/2 13/15/2 14/16/2 15/17/2 16/18/2 17/19/2 18/20/2 19/21/2 20/22/2 21/23/2 22/24/2 23/25/2 24/26/2
f 25/27/3 2/6/3 1/28/3 5/29/3
f 26/30/4 3/7/4 2/6/4 25/27/4 27/26/4 28/25/4 29/24/4 30/23/4 31/22/4 32/21/4 33/20/4 34/19/4 35/18/4 36/31/4 37/16/4 38/15/4 39/14/4 40/32/4 41/12/4 42/11/4 43/33/4 44/34/4
f 6/11/5 4/35/5 3/36/5 26/37/5
f 27/26/6 25/27/6 5/38/6 24/39/6
f 7/40/6 6/41/6 26/30/6 44/34/6
f 8/42/3 7/43/3 44/44/3 43/45/3
f 9/46/6 8/47/6 43/48/6 42/49/6
f 40/50/3 39/51/3 12/52/3 11/53/3
f 39/14/6 38/15/6 13/54/6 12/55/6
f 38/54/3 37/56/3 14/57/3 13/55/3
f 37/31/6 36/16/6 15/56/6 14/58/6
f 36/58/3 35/59/3 16/51/3 15/50/3
f 35/18/6 34/19/6 17/20/6 16/59/6
f 34/20/3 33/60/3 18/61/3 17/62/3
f 33/20/6 32/21/6 19/63/6 18/60/6
f 32/63/3 31/64/3 20/65/3 19/66/3
f 31/22/6 30/23/6 21/67/6 20/64/6
f 30/62/3 29/68/3 22/69/3 21/70/3
f 29/24/6 28/25/6 23/71/6 22/72/6
f 28/24/3 27/29/3 24/73/3 23/74/3
f 10/46/3 9/75/3 42/40/3 41/76/3
f 41/12/6 40/32/6 11/77/6 10/78/6
